<svg xmlns="http://www.w3.org/2000/svg" xml:space="preserve" style="shape-rendering:geometricPrecision;text-rendering:geometricPrecision;image-rendering:optimizeQuality;fill-rule:evenodd;clip-rule:evenodd" viewBox="0 0 5384 5384">
    <path style="fill:none" d="M-.01 0h5384v5384H-.01z"/>
    <path d="M3588.6 1480.96c-449.2-411.5-909.18-596.17-1458.4-449.01-549.22 147.17-855.24 537.07-1038.5 1118.05-115.98 367.66-360.62 597.86-360.62 597.86l1729.65-482.34 1713.37-459.1s-301.23-65.05-585.5-325.46z" style="fill:#000;fill-rule:nonzero"/>
    <path d="M5369.83 2325.82c-150.37-557.38-1470.88-688.99-2949.65-296.59-1480 392.73-2556.32 1171.3-2406.17 1731.67 103.98 388.05 771.16 572.04 1663.44 515-36.67-32.7-61.6-71.2-73.89-117.07-81.39-303.74 460.36-617.66 1171.98-808.34 711.63-190.68 1333.55-180.59 1412.95 115.71 12.29 45.88 9.94 91.68-5.46 138.33 803.73-397.4 1291.77-889.6 1186.8-1278.71z" style="fill:#4b82d6;fill-rule:nonzero"/>
    <path d="M3021.46 4273.22c716.58-192.01 1251.95-514.85 1172.56-811.16-79.4-296.3-704.45-308.2-1421.04-116.2-716.59 192.01-1252.62 512.37-1172.57 811.16 80.07 298.78 704.46 308.21 1421.05 116.2z" style="fill:#e6e6e6;fill-rule:nonzero"/>
</svg>
